<svg xmlns="http://www.w3.org/2000/svg" xmlns:xlink="http://www.w3.org/1999/xlink" contentStyleType="text/css" height="538px" preserveAspectRatio="none" style="width:856px;height:538px;background:#FFFFFF;" version="1.1" viewBox="0 0 856 538" width="856px" zoomAndPan="magnify"><defs/><g><rect fill="#FFFFFF" height="91.0547" style="stroke:#181818;stroke-width:1.0;" width="10" x="369.4746" y="114.9609"/><rect fill="#FFFFFF" height="285.2578" style="stroke:#181818;stroke-width:1.0;" width="10" x="369.4746" y="236.3672"/><rect fill="none" height="170.8516" style="stroke:#000000;stroke-width:1.5;" width="839.8672" x="10" y="343.7734"/><line style="stroke:#181818;stroke-width:0.5;stroke-dasharray:5.0,5.0;" x1="33" x2="33" y1="82.6094" y2="531.625"/><line style="stroke:#181818;stroke-width:0.5;stroke-dasharray:5.0,5.0;" x1="373.561" x2="373.561" y1="82.6094" y2="531.625"/><line style="stroke:#181818;stroke-width:0.5;stroke-dasharray:5.0,5.0;" x1="672.2471" x2="672.2471" y1="82.6094" y2="531.625"/><line style="stroke:#181818;stroke-width:0.5;stroke-dasharray:5.0,5.0;" x1="728.7158" x2="728.7158" y1="82.6094" y2="531.625"/><line style="stroke:#181818;stroke-width:0.5;stroke-dasharray:5.0,5.0;" x1="799.1641" x2="799.1641" y1="448.1172" y2="531.625"/><text fill="#000000" font-family="sans-serif" font-size="14" lengthAdjust="spacing" textLength="21" x="20" y="79.5332">PM</text><ellipse cx="33.5" cy="13.5" fill="#E2E2F0" rx="8" ry="8" style="stroke:#181818;stroke-width:0.5;"/><path d="M33.5,21.5 L33.5,48.5 M20.5,29.5 L46.5,29.5 M33.5,48.5 L20.5,63.5 M33.5,48.5 L46.5,63.5 " fill="none" style="stroke:#181818;stroke-width:0.5;"/><text fill="#000000" font-family="sans-serif" font-size="14" lengthAdjust="spacing" textLength="119.8271" x="311.561" y="79.5332">:ProyectoController</text><path d="M353.9746,37 L353.9746,61 M353.9746,49 L370.9746,49 " fill="none" style="stroke:#181818;stroke-width:0.5;"/><ellipse cx="382.9746" cy="49" fill="#E2E2F0" rx="12" ry="12" style="stroke:#181818;stroke-width:0.5;"/><text fill="#000000" font-family="sans-serif" font-size="14" lengthAdjust="spacing" textLength="47.4688" x="646.2471" y="79.5332">:Cliente</text><ellipse cx="672.9814" cy="49" fill="#E2E2F0" rx="12" ry="12" style="stroke:#181818;stroke-width:0.5;"/><line style="stroke:#181818;stroke-width:0.5;" x1="660.9814" x2="684.9814" y1="63" y2="63"/><text fill="#000000" font-family="sans-serif" font-size="14" lengthAdjust="spacing" textLength="33.4482" x="709.7158" y="79.5332">:User</text><ellipse cx="729.4399" cy="49" fill="#E2E2F0" rx="12" ry="12" style="stroke:#181818;stroke-width:0.5;"/><line style="stroke:#181818;stroke-width:0.5;" x1="717.4399" x2="741.4399" y1="63" y2="63"/><rect fill="#FFFFFF" height="91.0547" style="stroke:#181818;stroke-width:1.0;" width="10" x="369.4746" y="114.9609"/><rect fill="#FFFFFF" height="285.2578" style="stroke:#181818;stroke-width:1.0;" width="10" x="369.4746" y="236.3672"/><polygon fill="#181818" points="357.4746,110.9609,367.4746,114.9609,357.4746,118.9609" style="stroke:#181818;stroke-width:1.0;"/><line style="stroke:#181818;stroke-width:1.0;" x1="33.5" x2="363.4746" y1="114.9609" y2="114.9609"/><text fill="#000000" font-family="sans-serif" font-size="13" lengthAdjust="spacing" textLength="44.7891" x="40.5" y="110.1045">create()</text><polygon fill="#181818" points="660.9814,141.3125,670.9814,145.3125,660.9814,149.3125" style="stroke:#181818;stroke-width:1.0;"/><line style="stroke:#181818;stroke-width:1.0;" x1="379.4746" x2="666.9814" y1="145.3125" y2="145.3125"/><text fill="#000000" font-family="sans-serif" font-size="13" lengthAdjust="spacing" textLength="265.4399" x="386.4746" y="140.4561">orderBy('nombre')-&gt;get() : Collection&lt;Cliente&gt;</text><polygon fill="#181818" points="717.4399,171.6641,727.4399,175.6641,717.4399,179.6641" style="stroke:#181818;stroke-width:1.0;"/><line style="stroke:#181818;stroke-width:1.0;" x1="379.4746" x2="723.4399" y1="175.6641" y2="175.6641"/><text fill="#000000" font-family="sans-serif" font-size="13" lengthAdjust="spacing" textLength="240.8618" x="386.4746" y="170.8076">orderBy('name')-&gt;get() : Collection&lt;User&gt;</text><polygon fill="#181818" points="44.5,202.0156,34.5,206.0156,44.5,210.0156" style="stroke:#181818;stroke-width:1.0;"/><line style="stroke:#181818;stroke-width:1.0;stroke-dasharray:2.0,2.0;" x1="38.5" x2="373.4746" y1="206.0156" y2="206.0156"/><text fill="#000000" font-family="sans-serif" font-size="13" lengthAdjust="spacing" textLength="243.3945" x="50.5" y="201.1592">view('proyectos.create', clientes, usuarios)</text><polygon fill="#181818" points="357.4746,232.3672,367.4746,236.3672,357.4746,240.3672" style="stroke:#181818;stroke-width:1.0;"/><line style="stroke:#181818;stroke-width:1.0;" x1="33.5" x2="363.4746" y1="236.3672" y2="236.3672"/><text fill="#000000" font-family="sans-serif" font-size="13" lengthAdjust="spacing" textLength="115.6035" x="40.5" y="231.5107">store(req : Request)</text><line style="stroke:#181818;stroke-width:1.0;" x1="379.4746" x2="421.4746" y1="315.7734" y2="315.7734"/><line style="stroke:#181818;stroke-width:1.0;" x1="421.4746" x2="421.4746" y1="315.7734" y2="328.7734"/><line style="stroke:#181818;stroke-width:1.0;" x1="380.4746" x2="421.4746" y1="328.7734" y2="328.7734"/><polygon fill="#181818" points="390.4746,324.7734,380.4746,328.7734,390.4746,332.7734" style="stroke:#181818;stroke-width:1.0;"/><text fill="#000000" font-family="sans-serif" font-size="13" lengthAdjust="spacing" textLength="112.709" x="386.4746" y="261.8623">validate(req) : array</text><text fill="#000000" font-family="sans-serif" font-size="13" lengthAdjust="spacing" textLength="209.5298" x="386.4746" y="278.2139">[nombre : string, descripcion : string,</text><text fill="#000000" font-family="sans-serif" font-size="13" lengthAdjust="spacing" textLength="264.5068" x="386.4746" y="294.5654">fecha_inicio : date, fecha_fin_estimada : date,</text><text fill="#000000" font-family="sans-serif" font-size="13" lengthAdjust="spacing" textLength="239.1797" x="386.4746" y="310.917">estado : string, cliente_id : int, pm_id : int]</text><path d="M10,343.7734 L70.1709,343.7734 L70.1709,352.125 L60.1709,362.125 L10,362.125 L10,343.7734 " fill="#EEEEEE" style="stroke:#000000;stroke-width:1.5;"/><rect fill="none" height="170.8516" style="stroke:#000000;stroke-width:1.5;" width="839.8672" x="10" y="343.7734"/><text fill="#000000" font-family="sans-serif" font-size="13" font-weight="bold" lengthAdjust="spacing" textLength="15.1709" x="25" y="358.2686">alt</text><text fill="#000000" font-family="sans-serif" font-size="11" font-weight="bold" lengthAdjust="spacing" textLength="87.3984" x="85.1709" y="357.1924">[datos invalidos]</text><polygon fill="#181818" points="44.5,380.4766,34.5,384.4766,44.5,388.4766" style="stroke:#181818;stroke-width:1.0;"/><line style="stroke:#181818;stroke-width:1.0;stroke-dasharray:2.0,2.0;" x1="38.5" x2="368.4746" y1="384.4766" y2="384.4766"/><text fill="#000000" font-family="sans-serif" font-size="13" lengthAdjust="spacing" textLength="152.439" x="50.5" y="379.6201">redirect back() con $errors</text><line style="stroke:#000000;stroke-width:1.0;stroke-dasharray:2.0,2.0;" x1="10" x2="849.8672" y1="393.4766" y2="393.4766"/><text fill="#000000" font-family="sans-serif" font-size="11" font-weight="bold" lengthAdjust="spacing" textLength="89.853" x="15" y="404.8955">[datos correctos]</text><polygon fill="#181818" points="747.1641,426.6641,757.1641,430.6641,747.1641,434.6641" style="stroke:#181818;stroke-width:1.0;"/><line style="stroke:#181818;stroke-width:1.0;" x1="379.4746" x2="753.1641" y1="430.6641" y2="430.6641"/><text fill="#000000" font-family="sans-serif" font-size="13" lengthAdjust="spacing" textLength="172.6816" x="386.4746" y="425.8076">create(data : array) : Proyecto</text><text fill="#000000" font-family="sans-serif" font-size="14" lengthAdjust="spacing" textLength="74.7031" x="759.1641" y="454.8457">p : Proyecto</text><ellipse cx="799.5156" cy="424.3125" fill="#E2E2F0" rx="12" ry="12" style="stroke:#181818;stroke-width:0.5;"/><line style="stroke:#181818;stroke-width:0.5;" x1="787.5156" x2="811.5156" y1="438.3125" y2="438.3125"/><polygon fill="#181818" points="44.5,502.625,34.5,506.625,44.5,510.625" style="stroke:#181818;stroke-width:1.0;"/><line style="stroke:#181818;stroke-width:1.0;stroke-dasharray:2.0,2.0;" x1="38.5" x2="368.4746" y1="506.625" y2="506.625"/><text fill="#000000" font-family="sans-serif" font-size="13" lengthAdjust="spacing" textLength="282.5215" x="50.5" y="485.417">redirect(desde_modal ? back() : proyectos.index)</text><text fill="#000000" font-family="sans-serif" font-size="13" lengthAdjust="spacing" textLength="311.9746" x="50.5" y="501.7686">con success : string "Proyecto creado correctamente."</text><!--SRC=[TLFHQkim37ttLuXoeGba-u0oEbXULoWTVRgz5DNMDhF4pcIdz-RlhnodRGRRIx1rfAEZOoLyMDSXOmiX3Wt9bwsEVTierD4pBBQR1M20xKQTVEyCyW2BrPRzG8BNtaNsJKESasf5BjgOKkh6ofd6UFryY-_3bBn_kGOxMC65CXFjbDfku6ujb89f9enKb4cJFSinTH94yFfPSC-6-6aebiwt9wPbURT-erYK0jL9dLHvzp0fMa-L-vSlbTZ-L9SKvwAaPoFWsTBVOjbDYiDzrhUiGESMeO8-zCZMXr8PcgkUZnN4O2gOFkMyey-UGlnkn37tZ8qroGH9J_gG6OU3-vqd7idOkhSA30NDjjEY_1Ozk5VIxtYqpWeWyKHLGGw-MdUKrhP5WnVeu2I2ni-8fzcEraZGkbX1rrulVvJ29gPQ7-G-glL10SnjOpAMnJ4ueVuGbxL8_4NCdeEY9j1KhZtpwAkKPsVJFcGgOThT5aBoyU95ETkX7_eMuesXO-iDDl1uKR62sqDQP-XVUN19MUYrfX2k3iYlCEMDxSMRIQXiZlXolv1rDbzV-py0]--></g></svg>